<svg width="45" height="47" viewBox="0 0 45 47" fill="none" xmlns="http://www.w3.org/2000/svg">
<g id="Vector">
<mask id="path-1-inside-1_92_3" fill="white">
<path fill-rule="evenodd" clip-rule="evenodd" d="M3.21429 11.1523H41.7857L45 46.7902H0L3.21429 11.1523Z"/>
<path fill-rule="evenodd" clip-rule="evenodd" d="M12.8571 16.6351V8.41093C12.8571 3.86887 17.1744 0.186798 22.5 0.186798C27.8256 0.186798 32.1429 3.86887 32.1429 8.41093V16.6351"/>
</mask>
<path d="M3.21429 11.1523V9.15231H1.38655L1.22237 10.9727L3.21429 11.1523ZM41.7857 11.1523L43.7776 10.9727L43.6134 9.15231H41.7857V11.1523ZM45 46.7902V48.7902H47.1885L46.9919 46.6106L45 46.7902ZM0 46.7902L-1.99191 46.6106L-2.1885 48.7902H0V46.7902ZM10.8571 16.6351C10.8571 17.7396 11.7526 18.6351 12.8571 18.6351C13.9617 18.6351 14.8571 17.7396 14.8571 16.6351H10.8571ZM30.1429 16.6351C30.1429 17.7396 31.0383 18.6351 32.1429 18.6351C33.2474 18.6351 34.1429 17.7396 34.1429 16.6351H30.1429ZM3.21429 13.1523H41.7857V9.15231H3.21429V13.1523ZM39.7938 11.332L43.0081 46.9699L46.9919 46.6106L43.7776 10.9727L39.7938 11.332ZM45 44.7902H0V48.7902H45V44.7902ZM1.99191 46.9699L5.2062 11.332L1.22237 10.9727L-1.99191 46.6106L1.99191 46.9699ZM14.8571 16.6351V8.41093H10.8571V16.6351H14.8571ZM14.8571 8.41093C14.8571 5.26012 17.9686 2.1868 22.5 2.1868V-1.8132C16.3802 -1.8132 10.8571 2.47762 10.8571 8.41093H14.8571ZM22.5 2.1868C27.0314 2.1868 30.1429 5.26012 30.1429 8.41093H34.1429C34.1429 2.47762 28.6198 -1.8132 22.5 -1.8132V2.1868ZM30.1429 8.41093V16.6351H34.1429V8.41093H30.1429Z" fill="black" mask="url(#path-1-inside-1_92_3)"/>
</g>
</svg>
